<svg width="16" height="14" viewBox="0 0 16 14" fill="none" xmlns="http://www.w3.org/2000/svg">
    <path d="M6.5 7H9.5M2.75 4H13.25H2.75ZM2.75 4C2.35218 4 1.97064 3.84196 1.68934 3.56066C1.40804 3.27936 1.25 2.89782 1.25 2.5C1.25 2.10218 1.40804 1.72064 1.68934 1.43934C1.97064 1.15804 2.35218 1 2.75 1H13.25C13.6478 1 14.0294 1.15804 14.3107 1.43934C14.592 1.72064 14.75 2.10218 14.75 2.5C14.75 2.89782 14.592 3.27936 14.3107 3.56066C14.0294 3.84196 13.6478 4 13.25 4H2.75ZM2.75 4V11.5C2.75 11.8978 2.90804 12.2794 3.18934 12.5607C3.47064 12.842 3.85218 13 4.25 13H11.75C12.1478 13 12.5294 12.842 12.8107 12.5607C13.092 12.2794 13.25 11.8978 13.25 11.5V4H2.75Z" stroke="#D8779A" stroke-width="2" stroke-linecap="round" stroke-linejoin="round"/>
</svg>
