<svg width="16" height="16" viewBox="0 0 16 16" fill="none" xmlns="http://www.w3.org/2000/svg">
    <path d="M11.75 2H13.25C13.6478 2 14.0293 2.15804 14.3106 2.43934C14.5919 2.72064 14.75 3.10218 14.75 3.5V8C14.75 8.39782 14.5919 8.77936 14.3106 9.06066C14.0293 9.34196 13.6478 9.5 13.25 9.5H11.375M6.49995 9.5H2.92695C2.6713 9.49999 2.41989 9.43464 2.1966 9.31016C1.97331 9.18567 1.78553 9.00618 1.65111 8.78873C1.51668 8.57127 1.44006 8.32307 1.42853 8.06768C1.417 7.81229 1.47093 7.55819 1.5852 7.3295L4.2102 2.0795C4.33474 1.83026 4.52624 1.62064 4.76323 1.47413C5.00022 1.32762 5.27333 1.25001 5.55195 1.25H8.56545C8.68808 1.25007 8.81025 1.26519 8.9292 1.295L11.7492 2L6.49995 9.5ZM6.4992 9.5V13.25C6.4992 13.6478 6.65724 14.0294 6.93854 14.3107C7.21985 14.592 7.60138 14.75 7.9992 14.75H8.0712C8.4462 14.75 8.74995 14.4463 8.74995 14.072C8.74995 13.5358 8.9082 13.0122 9.20595 12.566L11.75 8.75V2L6.4992 9.5ZM6.49995 9.5H7.99995H6.49995Z" stroke="#00473E" stroke-width="2" stroke-linecap="round" stroke-linejoin="round"/>
</svg>
