<svg width="18" height="18" viewBox="0 0 18 18" fill="none" xmlns="http://www.w3.org/2000/svg">
    <path d="M5.11984 15.8583H3.46776C3.0296 15.8583 2.60938 15.6843 2.29956 15.3744C1.98973 15.0646 1.81567 14.6444 1.81567 14.2063V9.25C1.81567 8.81184 1.98973 8.39163 2.29956 8.0818C2.60938 7.77198 3.0296 7.59792 3.46776 7.59792H5.53286M10.9021 7.59792H14.8374C15.119 7.59793 15.3959 7.6699 15.6418 7.80701C15.8877 7.94411 16.0945 8.1418 16.2426 8.3813C16.3907 8.62081 16.475 8.89418 16.4877 9.17546C16.5004 9.45674 16.441 9.73661 16.3152 9.98848L13.424 15.7708C13.2868 16.0454 13.0758 16.2764 12.8146 16.4377C12.5534 16.5991 12.2524 16.6845 11.9454 16.6844H8.62721C8.49257 16.6844 8.35792 16.6679 8.22658 16.6348L5.11984 15.8583L10.9021 7.59792ZM10.9021 7.59792V3.46771C10.9021 3.02955 10.7281 2.60933 10.4182 2.29951C10.1084 1.98968 9.68821 1.81562 9.25005 1.81562H9.17157C8.75855 1.81562 8.42401 2.15017 8.42401 2.56319C8.42401 3.15299 8.24971 3.72956 7.92177 4.22023L5.11984 8.42396V15.8583L10.9021 7.59792ZM10.9021 7.59792H9.25005H10.9021Z" stroke="#00473E" stroke-width="2" stroke-linecap="round" stroke-linejoin="round"/>
</svg>
